<svg width="96" height="36" viewBox="0 0 96 36" fill="none" xmlns="http://www.w3.org/2000/svg">
<g clip-path="url(#clip0_2147_51271)">
<path d="M12.9015 0H13.4658C13.9698 0.0665002 14.4503 0.255722 14.8665 0.551508C15.3584 0.909744 15.7266 1.41589 15.919 1.99824C16.1114 2.58058 16.1183 3.20957 15.9386 3.7961C15.759 4.38262 15.4019 4.89692 14.918 5.26612C14.4342 5.63532 13.848 5.8407 13.2426 5.85315C12.6373 5.8656 12.0434 5.68448 11.5451 5.33548C11.0469 4.98647 10.6696 4.48728 10.4666 3.90862C10.2637 3.32996 10.2454 2.7012 10.4144 2.11143C10.5834 1.52166 10.9311 1.00078 11.4082 0.622623C11.8434 0.285639 12.3584 0.0708925 12.9015 0V0Z" fill="#6F59CA"/>
<path d="M55.6525 0H61.9757C62.4659 0.0563516 62.9344 0.236235 63.3386 0.523261C63.7427 0.810287 64.0696 1.19533 64.2895 1.64331C64.5045 2.0886 64.6041 2.58205 64.5791 3.0772C64.5541 3.57234 64.4053 4.05288 64.1467 4.47358C63.8881 4.89427 63.5281 5.24128 63.1008 5.48193C62.6734 5.72257 62.1927 5.84893 61.7039 5.84911C59.8343 5.85502 57.9646 5.84734 56.0958 5.85236C55.7047 5.86458 55.3146 5.80459 54.9447 5.67531C54.461 5.49689 54.0332 5.1904 53.7058 4.78766C53.3783 4.38492 53.1631 3.90062 53.0825 3.38502C53.0019 2.86942 53.0587 2.34133 53.2473 1.85558C53.4358 1.36982 53.7491 0.944103 54.1546 0.622623C54.5911 0.284937 55.1078 0.0701574 55.6525 0V0Z" fill="#6F59CA"/>
<path d="M77.122 0H77.6872C78.191 0.0666152 78.6713 0.255831 79.0874 0.551508C79.5789 0.909716 79.9469 1.41574 80.1391 1.99788C80.3314 2.58003 80.3382 3.20878 80.1585 3.79505C79.9789 4.38132 79.6219 4.89538 79.1382 5.26441C78.6545 5.63343 78.0685 5.83871 77.4634 5.85116C76.8583 5.8636 76.2646 5.68258 75.7666 5.33374C75.2685 4.9849 74.8913 4.48593 74.6884 3.90753C74.4855 3.32913 74.4671 2.70062 74.6359 2.11105C74.8048 1.52148 75.1522 1.00074 75.629 0.622623C76.0644 0.286171 76.5792 0.0714824 77.122 0V0Z" fill="#6F59CA"/>
<path d="M92.8263 0H93.3996C93.791 0.0987723 94.1535 0.290997 94.4568 0.560656C94.7213 0.818214 94.9131 1.14275 95.0125 1.5007C95.1118 1.85865 95.1151 2.23704 95.0221 2.59672C94.8798 3.06925 94.6072 3.49067 94.2366 3.81128C93.7019 4.32708 93.2132 4.89187 92.6628 5.39026C92.5199 5.49468 92.3526 5.55927 92.1774 5.57758C92.0023 5.5959 91.8254 5.56731 91.6646 5.49466C91.5037 5.42201 91.3645 5.30784 91.2607 5.16355C91.157 5.01925 91.0923 4.84988 91.0733 4.67233C90.9941 4.20167 91.3479 3.84905 91.6245 3.52652C91.434 3.28563 91.2792 3.01782 91.1649 2.73157C91.0511 2.38477 91.0286 2.01382 91.0997 1.65549C91.1708 1.29716 91.333 0.963897 91.5701 0.688721C91.902 0.324199 92.3439 0.0819207 92.8263 0V0Z" fill="#6F59CA"/>
<path d="M0.382255 9.64154C0.693077 9.08756 1.17399 8.65191 1.75166 8.40102C2.32933 8.15012 2.97204 8.09776 3.58179 8.25191C4.19153 8.40607 4.73483 8.75828 5.12884 9.25483C5.52284 9.75138 5.74593 10.365 5.76407 11.0022C5.77571 13.93 5.76087 16.8587 5.77135 19.7868C5.81538 21.7738 6.63292 23.6623 8.04535 25.0399C9.45777 26.4174 11.3503 27.1719 13.3094 27.1386C15.2685 27.1052 17.135 26.2868 18.5011 24.862C19.8672 23.4372 20.6218 21.5218 20.6001 19.5345C20.6001 16.7194 20.6001 13.9041 20.6001 11.0886C20.6001 10.313 20.9039 9.56911 21.4446 9.02064C21.9853 8.47218 22.7187 8.16406 23.4833 8.16406C24.248 8.16406 24.9814 8.47218 25.5221 9.02064C26.0628 9.56911 26.3665 10.313 26.3665 11.0886C26.3692 12.7334 26.3665 14.3794 26.3665 16.0242C26.3169 16.7391 26.3869 17.4574 26.5734 18.1488C26.8947 19.19 27.5708 20.0814 28.4806 20.6635C29.3905 21.2455 30.4748 21.4802 31.5396 21.3256C32.6044 21.1711 33.5803 20.6373 34.2927 19.8197C35.0051 19.0022 35.4076 17.9543 35.4281 16.8634C35.4371 14.9099 35.4223 12.9559 35.4348 11.0025C35.4543 10.3437 35.6927 9.71103 36.1113 9.20703C36.5299 8.70303 37.1042 8.3573 37.7409 8.22595C38.3775 8.09461 39.0393 8.18534 39.6187 8.48344C40.1982 8.78154 40.6613 9.26951 40.9329 9.86816C41.1452 10.3584 41.2372 10.8935 41.2009 11.4277C41.1968 13.2106 41.2009 14.9931 41.2009 16.776C41.2004 18.3114 40.8665 19.8279 40.2227 21.2176C39.579 22.6072 38.6413 23.8359 37.4763 24.8163C36.3114 25.7967 34.9477 26.5046 33.4824 26.8898C32.0171 27.275 30.4862 27.3279 28.9984 27.0449C27.5961 26.7696 26.262 26.2132 25.0743 25.4084C23.8922 27.898 21.9796 29.9558 19.599 31.2994C17.2184 32.643 14.4864 33.2067 11.7775 32.9132C9.14478 32.6257 6.65826 31.5415 4.64117 29.8015C2.62408 28.0615 1.16973 25.7462 0.4672 23.1566C0.227208 22.2264 0.0708347 21.2761 0 20.3173L0 10.8109C0.0556006 10.4007 0.185177 10.0042 0.382255 9.64154Z" fill="#6F59CA"/>
<path d="M46.2723 8.23255C46.6926 8.14074 47.1278 8.14541 47.5461 8.24625C47.9644 8.34708 48.3552 8.54151 48.6899 8.81531C49.0245 9.08912 49.2946 9.43536 49.4803 9.8287C49.666 10.222 49.7627 10.6525 49.7632 11.0887C49.7664 13.012 49.7608 14.9359 49.7655 16.8593C49.7889 18.0697 50.2822 19.222 51.1382 20.0657C51.9943 20.9094 53.1439 21.3764 54.3374 21.3652C55.531 21.3541 56.672 20.8658 57.5126 20.0063C58.3532 19.1468 58.8256 17.9856 58.827 16.7749C58.8311 14.8509 58.8221 12.9267 58.8311 11.0028C58.8551 10.2363 59.1749 9.50999 59.7218 8.98044C60.2687 8.4509 60.9988 8.16048 61.7548 8.17178C62.5107 8.18309 63.2321 8.4952 63.7633 9.04086C64.2946 9.58652 64.5932 10.3221 64.5949 11.0889C64.5972 12.5667 64.5949 14.0445 64.5949 15.5214C64.6179 16.3286 64.5958 17.1364 64.5289 17.941C64.3671 19.4032 63.9027 20.8143 63.166 22.0818C62.4294 23.3493 61.4371 24.4447 60.2541 25.2963C59.0712 26.1478 57.7242 26.7363 56.3015 27.0232C54.8788 27.3101 53.4123 27.289 51.9982 26.9611C50.4601 26.6005 49.0223 25.8916 47.7926 24.8876C46.5575 27.4232 44.8095 29.6663 42.6624 31.4706C41.9595 32.0389 41.2526 32.6892 40.3351 32.8548C39.7735 32.9638 39.1926 32.901 38.6663 32.6743C38.14 32.4476 37.6919 32.0674 37.3792 31.5818C37.0665 31.0962 36.9031 30.5273 36.9099 29.9474C36.9167 29.3674 37.0933 28.8026 37.4173 28.3247C37.7205 27.9059 38.1064 27.5558 38.5504 27.2966C40.185 26.0397 41.5216 24.4276 42.4622 22.5786C43.4028 20.7296 43.9235 18.6905 43.9863 16.6108C44.0052 14.7421 43.984 12.8721 43.9971 11.0043C44.0183 10.3514 44.2535 9.72428 44.6656 9.22227C45.0777 8.72025 45.6431 8.37198 46.2723 8.23255Z" fill="#6F59CA"/>
<path d="M67.0808 11.0826C67.1081 10.3105 67.4354 9.58058 67.9913 9.05233C68.5472 8.52409 69.2866 8.24038 70.048 8.26313C70.8094 8.28589 71.531 8.61327 72.0553 9.1738C72.5796 9.73433 72.864 10.4825 72.8463 11.255C72.8437 12.9266 72.8463 14.5982 72.8437 16.2713C72.809 16.8645 72.861 17.4597 72.9979 18.0374C73.2769 19.1015 73.9233 20.0286 74.8194 20.65C75.7155 21.2715 76.8018 21.5459 77.8806 21.4234C78.9594 21.301 79.959 20.7897 80.6974 19.9827C81.4359 19.1756 81.8642 18.1265 81.9044 17.0262C81.9169 15.0745 81.9044 13.1219 81.9102 11.1697C81.9102 10.394 82.214 9.65016 82.7547 9.1017C83.2954 8.55324 84.0287 8.24512 84.7934 8.24512C85.5581 8.24512 86.2914 8.55324 86.8321 9.1017C87.3728 9.65016 87.6766 10.394 87.6766 11.1697C87.6792 12.7041 87.6766 14.2362 87.6766 15.7691C87.6955 16.4909 87.6761 17.2133 87.6184 17.933C87.4254 19.8057 86.7374 21.5909 85.627 23.0999C84.5167 24.6089 83.0252 25.7858 81.3101 26.5063C79.595 27.2267 77.7199 27.464 75.8828 27.1931C74.0458 26.9222 72.315 26.1531 70.8731 24.9671C70.25 26.2367 69.502 27.439 68.6404 28.5559C68.3009 29.064 67.9422 29.5913 67.3863 29.8764C66.7047 30.2334 65.9198 30.3317 65.173 30.1538C64.8179 30.0695 64.4828 29.9146 64.1872 29.6979C63.8915 29.4813 63.6413 29.2072 63.4509 28.8917C63.241 28.5195 63.1061 28.1087 63.0541 27.6832C63.002 27.2577 63.0339 26.8259 63.1477 26.413C63.3348 25.8264 63.6731 25.3013 64.1275 24.8919C65.9541 22.5512 66.9869 19.6749 67.0724 16.691C67.0765 14.8209 67.0793 12.9515 67.0808 11.0826Z" fill="#6F59CA"/>
<path d="M91.6863 8.55413C92.1662 8.27636 92.7147 8.14422 93.2665 8.17341C93.8183 8.20259 94.3502 8.39189 94.799 8.71878C95.1302 8.96495 95.4078 9.27768 95.6145 9.63748C95.8212 9.99728 95.9526 10.3964 96.0005 10.81V17.643C95.9189 19.0714 95.6926 20.4875 95.325 21.8688C94.1472 26.1496 91.5177 29.8714 87.8999 32.3785C87.4178 32.7023 86.857 32.8851 86.2792 32.9067C85.7899 32.9136 85.3076 32.7886 84.8816 32.5445C84.4555 32.3005 84.1009 31.946 83.8542 31.5174C83.5006 30.863 83.3826 30.104 83.5205 29.371C83.6633 28.6068 84.0944 27.9293 84.722 27.4825C86.4168 26.2937 87.803 24.7067 88.7625 22.857C89.7219 21.0073 90.2261 18.9496 90.2321 16.8595C90.2338 15.1594 90.2338 13.4597 90.2321 11.7602C90.2137 11.3521 90.2313 10.9432 90.2847 10.5383C90.3644 10.1249 90.5308 9.73383 90.7727 9.39149C91.0145 9.04914 91.3261 8.76356 91.6863 8.55413Z" fill="#6F59CA"/>
<path d="M26.7814 29.9652C27.5486 29.7764 28.3148 30.0423 29.0796 30.0972C30.0792 30.1863 31.0855 30.1619 32.0798 30.0246C32.7012 29.9225 33.3505 29.818 33.966 30.0145C34.5818 30.1971 35.1201 30.5825 35.496 31.1098C35.8719 31.6372 36.0639 32.2765 36.0418 32.9268C36.0197 33.5772 35.7847 34.2016 35.3739 34.7014C34.9631 35.2013 34.3999 35.5481 33.7732 35.6872C32.7927 35.8586 31.8019 35.963 30.8076 35.9997H29.7455C28.7528 35.9594 27.7635 35.8569 26.7832 35.6928C26.1391 35.5501 25.5625 35.1884 25.149 34.6676C24.7355 34.1468 24.51 33.4983 24.5098 32.8296C24.5096 32.1609 24.7347 31.5122 25.1479 30.9912C25.5611 30.4702 26.1375 30.1081 26.7814 29.965V29.9652Z" fill="#6F59CA"/>
</g>
<defs>
<clipPath id="clip0_2147_51271">
<rect width="96" height="36" fill="white"/>
</clipPath>
</defs>
</svg>
